<svg xmlns="http://www.w3.org/2000/svg" xmlns:xlink="http://www.w3.org/1999/xlink" xmlns:lucid="lucid" width="2000" height="2000"><g transform="translate(0 2000)" lucid:page-tab-id="0_0"><path d="M0-2000h2000V0H0z" fill="#fff"/><path d="M614.2-1754a6 6 0 0 1 6-6h388a6 6 0 0 1 6 6v176a6 6 0 0 1-6 6h-388a6 6 0 0 1-6-6z" fill="#fff"/><path d="M614.2-1720v38h400v-38" fill="#fff"/><path d="M614.2-1683v38h400v-38" fill="#fff"/><path d="M614.2-1646v38h400v-38" fill="#fff"/><path d="M614.2-1609v31a6 6 0 0 0 6 6h388a6 6 0 0 0 6-6v-31" fill="#fff"/><path d="M614.2-1720h400M614.2-1754a6 6 0 0 1 6-6h388a6 6 0 0 1 6 6v176a6 6 0 0 1-6 6h-388a6 6 0 0 1-6-6zM700.44-1720v148M840.75-1720v148" stroke="#000" stroke-width="2" fill="none"/><use xlink:href="#a" transform="matrix(1,0,0,1,624.2153300544053,-1760) translate(134.76996527777777 28.08376736111111)"/><use xlink:href="#b" transform="matrix(1,0,0,1,619.2153300544053,-1717.5) translate(25.598524305555557 24.08376736111111)"/><use xlink:href="#c" transform="matrix(1,0,0,1,705.4375522766275,-1717.5) translate(0 24.08376736111111)"/><use xlink:href="#d" transform="matrix(1,0,0,1,845.7519155575429,-1717.5) translate(0 24.08376736111111)"/><use xlink:href="#e" transform="matrix(1,0,0,1,705.4375522766275,-1680.5) translate(0 24.08376736111111)"/><use xlink:href="#f" transform="matrix(1,0,0,1,845.7519155575429,-1680.5) translate(0 24.08376736111111)"/><use xlink:href="#g" transform="matrix(1,0,0,1,619.2153300544053,-1643.5) translate(2.8229166666666714 24.08376736111111)"/><use xlink:href="#h" transform="matrix(1,0,0,1,705.4375522766275,-1643.5) translate(0 24.08376736111111)"/><use xlink:href="#f" transform="matrix(1,0,0,1,845.7519155575429,-1643.5) translate(0 24.08376736111111)"/><use xlink:href="#i" transform="matrix(1,0,0,1,705.4375522766275,-1606.5) translate(0 24.08376736111111)"/><use xlink:href="#f" transform="matrix(1,0,0,1,845.7519155575429,-1606.5) translate(0 24.08376736111111)"/><path d="M620-1234a6 6 0 0 1 6-6h348a6 6 0 0 1 6 6v176a6 6 0 0 1-6 6H626a6 6 0 0 1-6-6z" fill="#fff"/><path d="M620-1200v38h360v-38" fill="#fff"/><path d="M620-1163v38h360v-38" fill="#fff"/><path d="M620-1126v38h360v-38" fill="#fff"/><path d="M620-1089v31a6 6 0 0 0 6 6h348a6 6 0 0 0 6-6v-31" fill="#fff"/><path d="M620-1200h360M620-1234a6 6 0 0 1 6-6h348a6 6 0 0 1 6 6v176a6 6 0 0 1-6 6H626a6 6 0 0 1-6-6zM679.06-1200v148M890.67-1200v148" stroke="#000" stroke-width="2" fill="none"/><use xlink:href="#j" transform="matrix(1,0,0,1,630,-1240) translate(135.60872395833331 28.08376736111111)"/><use xlink:href="#b" transform="matrix(1,0,0,1,625,-1197.5) translate(12.098524305555557 24.08376736111111)"/><use xlink:href="#c" transform="matrix(1,0,0,1,684.0625,-1197.5) translate(0 24.08376736111111)"/><use xlink:href="#d" transform="matrix(1,0,0,1,895.6666666666669,-1197.5) translate(0 24.08376736111111)"/><use xlink:href="#k" transform="matrix(1,0,0,1,625,-1160.5) translate(14.789496527777779 24.08376736111111)"/><use xlink:href="#l" transform="matrix(1,0,0,1,684.0625,-1160.5) translate(0 24.08376736111111)"/><use xlink:href="#d" transform="matrix(1,0,0,1,895.6666666666669,-1160.5) translate(0 24.08376736111111)"/><use xlink:href="#m" transform="matrix(1,0,0,1,684.0625,-1123.5) translate(0 24.08376736111111)"/><use xlink:href="#f" transform="matrix(1,0,0,1,895.6666666666669,-1123.5) translate(0 24.08376736111111)"/><use xlink:href="#n" transform="matrix(1,0,0,1,684.0625,-1086.5) translate(0 24.08376736111111)"/><use xlink:href="#o" transform="matrix(1,0,0,1,895.6666666666669,-1086.5) translate(0 24.08376736111111)"/><path d="M1248.98-1754a6 6 0 0 1 6-6h297.5a6 6 0 0 1 6 6v250a6 6 0 0 1-6 6h-297.5a6 6 0 0 1-6-6z" fill="#fff"/><path d="M1248.98-1720v38h309.5v-38" fill="#fff"/><path d="M1248.98-1683v38h309.5v-38" fill="#fff"/><path d="M1248.98-1646v38h309.5v-38" fill="#fff"/><path d="M1248.98-1609v38h309.5v-38" fill="#fff"/><path d="M1248.98-1572v38h309.5v-38" fill="#fff"/><path d="M1248.98-1535v31a6 6 0 0 0 6 6h297.5a6 6 0 0 0 6-6v-31" fill="#fff"/><path d="M1248.98-1720h309.5M1248.98-1754a6 6 0 0 1 6-6h297.5a6 6 0 0 1 6 6v250a6 6 0 0 1-6 6h-297.5a6 6 0 0 1-6-6zM1339.65-1720v222M1462.3-1720v222" stroke="#000" stroke-width="2" fill="none"/><use xlink:href="#p" transform="matrix(1,0,0,1,1258.9796006944443,-1760) translate(88.1640625 28.08376736111111)"/><use xlink:href="#b" transform="matrix(1,0,0,1,1253.9796006944443,-1717.5) translate(27.598524305555557 24.08376736111111)"/><use xlink:href="#c" transform="matrix(1,0,0,1,1344.6462673611113,-1717.5) translate(0 24.08376736111111)"/><use xlink:href="#d" transform="matrix(1,0,0,1,1467.312934027778,-1717.5) translate(0 24.08376736111111)"/><use xlink:href="#e" transform="matrix(1,0,0,1,1344.6462673611113,-1680.5) translate(0 24.08376736111111)"/><use xlink:href="#f" transform="matrix(1,0,0,1,1467.312934027778,-1680.5) translate(0 24.08376736111111)"/><use xlink:href="#g" transform="matrix(1,0,0,1,1253.9796006944443,-1643.5) translate(4.822916666666671 24.08376736111111)"/><use xlink:href="#h" transform="matrix(1,0,0,1,1344.6462673611113,-1643.5) translate(0 24.08376736111111)"/><use xlink:href="#f" transform="matrix(1,0,0,1,1467.312934027778,-1643.5) translate(0 24.08376736111111)"/><use xlink:href="#i" transform="matrix(1,0,0,1,1344.6462673611113,-1606.5) translate(0 24.08376736111111)"/><use xlink:href="#f" transform="matrix(1,0,0,1,1467.312934027778,-1606.5) translate(0 24.08376736111111)"/><use xlink:href="#q" transform="matrix(1,0,0,1,1344.6462673611113,-1569.5) translate(0 24.08376736111111)"/><use xlink:href="#r" transform="matrix(1,0,0,1,1467.312934027778,-1569.5) translate(0 24.08376736111111)"/><use xlink:href="#s" transform="matrix(1,0,0,1,1253.9796006944443,-1532.5) translate(20.96875 24.08376736111111)"/><use xlink:href="#t" transform="matrix(1,0,0,1,1344.6462673611113,-1532.5) translate(0 24.08376736111111)"/><use xlink:href="#f" transform="matrix(1,0,0,1,1467.312934027778,-1532.5) translate(0 24.08376736111111)"/><path d="M1599.96-1150.48l-.08 1-.24.98-.38.94-.54.87-.65.78-.78.66-.88.53-.93.4-1 .23-1 .07h-14.6v-.94h14.57l.88-.07.84-.2.8-.34.73-.45.66-.56.55-.65.46-.74.34-.8.2-.84.07-.88v-218.72h.96zm-5.46-551.9l1 .25.92.4.87.52.77.65.65.77.54.87.38.93.24 1 .08.98v305.25h-.95v-305.2l-.06-.88-.2-.85-.33-.8-.45-.73-.56-.67-.67-.57-.74-.45-.8-.32-.85-.2-.88-.07h-14v-.94h14.03z" stroke="#3a414a" stroke-width=".05" fill="#3a414a"/><path d="M1579.96-1691.97h-.95v-9.52h-19.52v-.94H1579v-9.53h.96zM1579.92-1144.92l-.2.42.2.42-20 10-.42-.85 18.2-9.1h-18v-.94h18l-18.2-9.1.42-.86z" stroke="#3a414a" stroke-width=".05" fill="#3a414a"/><use xlink:href="#u" transform="matrix(1,0,0,1,1497.4279390784318,-1390.7495535644991) translate(0 17.22222222222222)"/><use xlink:href="#v" transform="matrix(1,0,0,1,1497.4279390784318,-1390.7495535644991) translate(133.40277777777783 17.22222222222222)"/><path d="M1007.94-1181H1001v-.96h6.94zm211.65-.03h-7.54v-.94h7.53z" stroke="#3a414a" stroke-width=".05" fill="#3a414a"/><path d="M1001.48-1171.5h-.96v-9.5H981v-.96h19.52v-9.53h.96zM1239-1191.08l-18.2 9.1h17.98v.95h-18l18.2 9.1-.42.86-20-10 .22-.43-.22-.42 20-10z" stroke="#3a414a" stroke-width=".05" fill="#3a414a"/><use xlink:href="#u" transform="matrix(1,0,0,1,1007.9426989866761,-1192.2494420046196) translate(0 17.22222222222222)"/><use xlink:href="#v" transform="matrix(1,0,0,1,1007.9426989866761,-1192.2494420046196) translate(133.40277777777783 17.22222222222222)"/><path d="M1240-1234a6 6 0 0 1 6-6h306.48a6 6 0 0 1 6 6v102a6 6 0 0 1-6 6H1246a6 6 0 0 1-6-6z" fill="#fff"/><path d="M1240-1200v38h318.48v-38" fill="#fff"/><path d="M1240-1163v31a6 6 0 0 0 6 6h306.48a6 6 0 0 0 6-6v-31" fill="#fff"/><path d="M1240-1200h318.48M1240-1234a6 6 0 0 1 6-6h306.48a6 6 0 0 1 6 6v102a6 6 0 0 1-6 6H1246a6 6 0 0 1-6-6zM1299.06-1200v74M1486.48-1200v74" stroke="#000" stroke-width="2" fill="none"/><use xlink:href="#w" transform="matrix(1,0,0,1,1250,-1240) translate(64.45225694444444 28.08376736111111)"/><use xlink:href="#k" transform="matrix(1,0,0,1,1245,-1197.5) translate(14.789496527777779 24.08376736111111)"/><use xlink:href="#x" transform="matrix(1,0,0,1,1304.0625,-1197.5) translate(0 24.08376736111111)"/><use xlink:href="#d" transform="matrix(1,0,0,1,1491.4778645833333,-1197.5) translate(0 24.08376736111111)"/><use xlink:href="#k" transform="matrix(1,0,0,1,1245,-1160.5) translate(14.789496527777779 24.08376736111111)"/><use xlink:href="#y" transform="matrix(1,0,0,1,1304.0625,-1160.5) translate(0 24.08376736111111)"/><use xlink:href="#d" transform="matrix(1,0,0,1,1491.4778645833333,-1160.5) translate(0 24.08376736111111)"/><path d="M573.7-1150.52l.06.88.2.85.33.8.45.75.56.65.67.57.74.45.8.33.85.2.88.08h20.36v.94h-20.4l-1-.07-1-.24-.93-.4-.86-.52-.76-.66-.66-.77-.53-.86-.4-.94-.23-1-.08-.98v-258.96h.95zm19.5-550.68h-13.97l-.88.07-.84.2-.8.33-.73.45-.66.57-.55.66-.46.74-.34.8-.2.84-.07.88v264.7h-.96v-264.74l.08-1 .24-.98.4-.94.52-.86.66-.78.77-.66.88-.53.93-.4 1-.22 1-.08h14z" stroke="#3a414a" stroke-width=".05" fill="#3a414a"/><path d="M593.7-1702.15h19.5v.95h-19.5v9.52h-.96v-20h.95zM619-1154.08l-18.2 9.1h17.98v.95h-18l18.2 9.1-.42.85-20-10 .22-.42-.22-.42 20-10z" stroke="#3a414a" stroke-width=".05" fill="#3a414a"/><use xlink:href="#z" transform="matrix(1,0,0,1,515.9931375608792,-1430.9518538519853) translate(0 17.22222222222222)"/><path d="M614.2-534a6 6 0 0 1 6-6h349a6 6 0 0 1 6 6v139a6 6 0 0 1-6 6h-349a6 6 0 0 1-6-6z" fill="#fff"/><path d="M614.2-500v38h361v-38" fill="#fff"/><path d="M614.2-463v38h361v-38" fill="#fff"/><path d="M614.2-426v31a6 6 0 0 0 6 6h349a6 6 0 0 0 6-6v-31" fill="#fff"/><path d="M614.2-500h361M614.2-534a6 6 0 0 1 6-6h349a6 6 0 0 1 6 6v139a6 6 0 0 1-6 6h-349a6 6 0 0 1-6-6zM673.28-500v111M870.73-500v111" stroke="#000" stroke-width="2" fill="none"/><use xlink:href="#A" transform="matrix(1,0,0,1,624.2153300544053,-540) translate(121.54709201388889 28.08376736111111)"/><use xlink:href="#b" transform="matrix(1,0,0,1,619.2153300544053,-497.5) translate(12.098524305555557 24.08376736111111)"/><use xlink:href="#c" transform="matrix(1,0,0,1,678.2778300544053,-497.5) translate(0 24.08376736111111)"/><use xlink:href="#d" transform="matrix(1,0,0,1,875.7328424234147,-497.5) translate(0 24.08376736111111)"/><use xlink:href="#e" transform="matrix(1,0,0,1,678.2778300544053,-460.5) translate(0 24.08376736111111)"/><use xlink:href="#f" transform="matrix(1,0,0,1,875.7328424234147,-460.5) translate(0 24.08376736111111)"/><use xlink:href="#B" transform="matrix(1,0,0,1,678.2778300544053,-423.5) translate(0 24.08376736111111)"/><use xlink:href="#r" transform="matrix(1,0,0,1,875.7328424234147,-423.5) translate(0 24.08376736111111)"/><path d="M620-854a6 6 0 0 1 6-6h253.78a6 6 0 0 1 6 6v102a6 6 0 0 1-6 6H626a6 6 0 0 1-6-6z" fill="#fff"/><path d="M620-820v38h265.78v-38" fill="#fff"/><path d="M620-783v31a6 6 0 0 0 6 6h253.78a6 6 0 0 0 6-6v-31" fill="#fff"/><path d="M620-820h265.78M620-854a6 6 0 0 1 6-6h253.78a6 6 0 0 1 6 6v102a6 6 0 0 1-6 6H626a6 6 0 0 1-6-6zM679.06-820v74M813.78-820v74" stroke="#000" stroke-width="2" fill="none"/><use xlink:href="#C" transform="matrix(1,0,0,1,630,-860) translate(39.970486111111114 28.08376736111111)"/><use xlink:href="#k" transform="matrix(1,0,0,1,625,-817.5) translate(14.789496527777779 24.08376736111111)"/><use xlink:href="#x" transform="matrix(1,0,0,1,684.0625,-817.5) translate(0 24.08376736111111)"/><use xlink:href="#d" transform="matrix(1,0,0,1,818.7772914733725,-817.5) translate(0 24.08376736111111)"/><use xlink:href="#k" transform="matrix(1,0,0,1,625,-780.5) translate(14.789496527777779 24.08376736111111)"/><use xlink:href="#D" transform="matrix(1,0,0,1,684.0625,-780.5) translate(0 24.08376736111111)"/><use xlink:href="#d" transform="matrix(1,0,0,1,818.7772914733725,-780.5) translate(0 24.08376736111111)"/><path d="M579.48-807.5l.06.88.2.84.34.8.45.74.56.66.65.56.74.45.8.33.84.2.88.08H599v.95h-14.02l-1-.1-.98-.23-.94-.4-.87-.52-.78-.66-.66-.78-.53-.87-.4-.94-.23-.98-.08-1v-173.36h.96zm20.1-373.72h-14.56l-.88.07-.85.2-.8.33-.75.45-.66.57-.57.66-.45.74-.33.8-.2.84-.07.88v173.33h-.96v-173.37l.08-1 .24-.98.4-.94.52-.86.66-.78.77-.66.86-.53.94-.4 1-.22.98-.07h14.6z" stroke="#3a414a" stroke-width=".05" fill="#3a414a"/><path d="M599.48-801.96H619v.95h-19.52v9.5h-.96v-20h.96zM619-1191.27l-18.2 9.1h17.98v.95h-18l18.2 9.1-.42.85-20-10 .22-.43-.22-.42 20-10z" stroke="#3a414a" stroke-width=".05" fill="#3a414a"/><use xlink:href="#E" transform="matrix(1,0,0,1,476.94273805082383,-1002.3481622560765) translate(0 17.22222222222222)"/><use xlink:href="#F" transform="matrix(1,0,0,1,476.94273805082383,-1002.3481622560765) translate(133.40277777777783 17.22222222222222)"/><path d="M573.7-487.6l.06.87.2.84.33.8.45.75.56.66.67.57.74.46.8.33.85.2.88.07h14v.95H579.2l-1-.08-1-.24-.93-.38-.86-.54-.76-.65-.66-.8-.53-.85-.4-.94-.23-.98-.08-1v-127.46h.95zm25.9-276.13h-20.37l-.88.06-.84.2-.8.34-.73.45-.66.56-.55.66-.46.74-.34.8-.2.85-.07.88v121.65h-.96v-121.68l.08-1 .24-.98.4-.95.52-.87.66-.77.77-.65.88-.53.93-.4 1-.23 1-.08h20.4z" stroke="#3a414a" stroke-width=".05" fill="#3a414a"/><path d="M593.7-482.07h19.5v.95h-19.5v9.53h-.96v-20h.95zM619-773.8l-18.2 9.12h17.98v.94h-18l18.2 9.1-.42.86-20-10 .22-.43-.22-.43 20-10z" stroke="#3a414a" stroke-width=".05" fill="#3a414a"/><g><use xlink:href="#E" transform="matrix(1,0,0,1,471.1580760897677,-636.5498167599823) translate(0 17.22222222222222)"/><use xlink:href="#F" transform="matrix(1,0,0,1,471.1580760897677,-636.5498167599823) translate(133.40277777777783 17.22222222222222)"/></g><defs><path d="M613 24c-304 0-509-231-509-576 0-350 205-580 509-580 216 0 392 114 453 309l-173 49c-33-115-133-197-280-197-223 0-326 196-326 419 0 220 103 415 326 415 150 0 252-85 285-206l172 49C1010-95 832 24 613 24" id="G"/><path d="M537 14c-226 0-379-139-379-422v-710h180v695c0 172 97 275 253 275 160 0 281-109 281-300v-670h181V0H879v-209C806-46 684 14 537 14" id="H"/><path d="M538 24C308 24 148-78 108-271l171-41c32 123 123 178 257 178 156 0 256-77 256-169 0-77-54-128-164-154l-186-44c-203-48-300-148-300-305 0-192 176-326 414-326 230 0 351 112 402 269l-163 42c-31-80-94-158-238-158-133 0-233 69-233 162 0 83 57 129 188 160l169 40c203 48 298 149 298 302 0 196-179 339-441 339" id="I"/><path d="M598-1118v154H368v674c0 100 37 144 132 144 23 0 62-6 92-12L629-6c-37 13-88 20-134 20-193 0-307-107-307-290v-688H20v-154h168v-266h180v266h230" id="J"/><path d="M613 24c-304 0-509-231-509-576 0-350 205-580 509-580 305 0 511 230 511 580 0 345-206 576-511 576zm0-161c226 0 329-195 329-415 0-222-103-419-329-419-223 0-326 196-326 419 0 220 103 415 326 415" id="K"/><path d="M158 0v-1118h175l1 205c55-151 181-225 313-225 147 0 245 90 285 228 53-141 190-228 352-228 194 0 352 125 352 384V0h-181v-749c0-161-105-225-225-225-151 0-243 103-243 244V0H807v-767c0-124-93-207-219-207-131 0-250 92-250 270V0H158" id="L"/><path d="M628 24c-324 0-524-230-524-574 0-343 198-582 503-582 237 0 487 146 487 559v75H286c9 234 145 362 343 362 132 0 231-58 273-172l174 48C1024-91 857 24 628 24zM287-650h624c-17-190-120-322-304-322-192 0-309 151-320 322" id="M"/><path d="M158 0v-1118h174v172h12c41-113 157-188 290-188 26 0 70 2 91 3v181c-11-2-60-10-108-10-161 0-279 109-279 260V0H158" id="N"/><g id="a"><use transform="matrix(0.010850694444444444,0,0,0.010850694444444444,0,0)" xlink:href="#G"/><use transform="matrix(0.010850694444444444,0,0,0.010850694444444444,12.6953125,0)" xlink:href="#H"/><use transform="matrix(0.010850694444444444,0,0,0.010850694444444444,25.83550347222222,0)" xlink:href="#I"/><use transform="matrix(0.010850694444444444,0,0,0.010850694444444444,37.565104166666664,0)" xlink:href="#J"/><use transform="matrix(0.010850694444444444,0,0,0.010850694444444444,44.61805555555556,0)" xlink:href="#K"/><use transform="matrix(0.010850694444444444,0,0,0.010850694444444444,57.94270833333333,0)" xlink:href="#L"/><use transform="matrix(0.010850694444444444,0,0,0.010850694444444444,77.40885416666667,0)" xlink:href="#M"/><use transform="matrix(0.010850694444444444,0,0,0.010850694444444444,90.36458333333334,0)" xlink:href="#N"/><use transform="matrix(0.010850694444444444,0,0,0.010850694444444444,98.73046875000001,0)" xlink:href="#I"/></g><path d="M158 418v-1536h174v179h20c37-59 106-193 324-193 279 0 474 222 474 576 0 356-194 580-473 580-213 0-288-135-325-197h-14v591H158zm492-555c209 0 317-186 317-421 0-232-105-413-317-413-206 0-314 166-314 413 0 249 111 421 314 421" id="O"/><path d="M158 0v-1490h180v865h22l478-493h223L593-638 1096 0H865L456-523 338-412V0H158" id="P"/><g id="b"><use transform="matrix(0.010850694444444444,0,0,0.010850694444444444,0,0)" xlink:href="#O"/><use transform="matrix(0.010850694444444444,0,0,0.010850694444444444,13.606770833333332,0)" xlink:href="#P"/></g><path d="M158 0v-1118h180V0H158zm91-1301c-68 0-125-53-125-119s57-119 125-119c69 0 126 53 126 119s-57 119-126 119" id="Q"/><path d="M577 24c-279 0-473-224-473-580 0-354 195-576 474-576 218 0 287 134 324 193h14v-551h180V0H922v-173h-20C865-111 790 24 577 24zm27-161c203 0 314-172 314-421 0-247-108-413-314-413-212 0-317 181-317 413 0 235 108 421 317 421" id="R"/><g id="c"><use transform="matrix(0.010850694444444444,0,0,0.010850694444444444,0,0)" xlink:href="#Q"/><use transform="matrix(0.010850694444444444,0,0,0.010850694444444444,5.381944444444445,0)" xlink:href="#R"/></g><path d="M338-670V0H158v-1118h173l1 207c72-158 192-221 342-221 226 0 378 139 378 422V0H872v-695c0-172-96-275-252-275-161 0-282 109-282 300" id="S"/><g id="d"><use transform="matrix(0.010850694444444444,0,0,0.010850694444444444,0,0)" xlink:href="#Q"/><use transform="matrix(0.010850694444444444,0,0,0.010850694444444444,5.381944444444445,0)" xlink:href="#S"/><use transform="matrix(0.010850694444444444,0,0,0.010850694444444444,18.51128472222222,0)" xlink:href="#J"/></g><path d="M471 26C259 26 90-98 90-318c0-256 228-303 435-329 202-27 287-16 287-108 0-139-79-219-234-219-161 0-248 86-283 164l-173-57c86-203 278-265 451-265 150 0 419 46 419 395V0H815v-152h-12C765-73 660 26 471 26zm31-159c199 0 310-134 310-271v-155c-30 35-226 55-295 64-131 17-246 59-246 186 0 116 97 176 231 176" id="T"/><g id="e"><use transform="matrix(0.010850694444444444,0,0,0.010850694444444444,0,0)" xlink:href="#S"/><use transform="matrix(0.010850694444444444,0,0,0.010850694444444444,13.129340277777777,0)" xlink:href="#T"/><use transform="matrix(0.010850694444444444,0,0,0.010850694444444444,25.60763888888889,0)" xlink:href="#L"/><use transform="matrix(0.010850694444444444,0,0,0.010850694444444444,45.07378472222221,0)" xlink:href="#M"/></g><path d="M481 0L54-1118h197c107 314 236 620 325 951 87-331 217-637 324-951h197L670 0H481" id="U"/><path d="M338-670V0H158v-1490h180v566c73-149 190-208 336-208 226 0 379 139 379 422V0H872v-695c0-172-96-275-252-275-161 0-282 109-282 300" id="V"/><g id="f"><use transform="matrix(0.010850694444444444,0,0,0.010850694444444444,0,0)" xlink:href="#U"/><use transform="matrix(0.010850694444444444,0,0,0.010850694444444444,12.38064236111111,0)" xlink:href="#T"/><use transform="matrix(0.010850694444444444,0,0,0.010850694444444444,24.85894097222222,0)" xlink:href="#N"/><use transform="matrix(0.010850694444444444,0,0,0.010850694444444444,32.85590277777778,0)" xlink:href="#G"/><use transform="matrix(0.010850694444444444,0,0,0.010850694444444444,45.55121527777778,0)" xlink:href="#V"/><use transform="matrix(0.010850694444444444,0,0,0.010850694444444444,58.69140625,0)" xlink:href="#T"/><use transform="matrix(0.010850694444444444,0,0,0.010850694444444444,71.16970486111111,0)" xlink:href="#N"/></g><path d="M1096 418H916v-591h-14C865-111 790 24 577 24c-279 0-473-224-473-580 0-354 195-576 474-576 218 0 287 134 324 193h20v-179h174V418zM604-137c203 0 314-172 314-421 0-247-108-413-314-413-212 0-317 181-317 413 0 235 108 421 317 421" id="W"/><g id="g"><use transform="matrix(0.010850694444444444,0,0,0.010850694444444444,0,0)" xlink:href="#H"/><use transform="matrix(0.010850694444444444,0,0,0.010850694444444444,13.140190972222221,0)" xlink:href="#S"/><use transform="matrix(0.010850694444444444,0,0,0.010850694444444444,26.26953125,0)" xlink:href="#Q"/><use transform="matrix(0.010850694444444444,0,0,0.010850694444444444,31.651475694444443,0)" xlink:href="#W"/><use transform="matrix(0.010850694444444444,0,0,0.010850694444444444,45.25824652777778,0)" xlink:href="#H"/><use transform="matrix(0.010850694444444444,0,0,0.010850694444444444,58.398437499999986,0)" xlink:href="#M"/></g><path d="M338-1490V0H158v-1490h180" id="X"/><g id="h"><use transform="matrix(0.010850694444444444,0,0,0.010850694444444444,0,0)" xlink:href="#M"/><use transform="matrix(0.010850694444444444,0,0,0.010850694444444444,12.955729166666666,0)" xlink:href="#L"/><use transform="matrix(0.010850694444444444,0,0,0.010850694444444444,32.421875,0)" xlink:href="#T"/><use transform="matrix(0.010850694444444444,0,0,0.010850694444444444,44.90017361111111,0)" xlink:href="#Q"/><use transform="matrix(0.010850694444444444,0,0,0.010850694444444444,50.28211805555556,0)" xlink:href="#X"/></g><g id="i"><use transform="matrix(0.010850694444444444,0,0,0.010850694444444444,0,0)" xlink:href="#O"/><use transform="matrix(0.010850694444444444,0,0,0.010850694444444444,13.606770833333332,0)" xlink:href="#V"/><use transform="matrix(0.010850694444444444,0,0,0.010850694444444444,26.746961805555554,0)" xlink:href="#K"/><use transform="matrix(0.010850694444444444,0,0,0.010850694444444444,40.07161458333333,0)" xlink:href="#S"/><use transform="matrix(0.010850694444444444,0,0,0.010850694444444444,53.20095486111111,0)" xlink:href="#M"/></g><g id="j"><use transform="matrix(0.010850694444444444,0,0,0.010850694444444444,0,0)" xlink:href="#J"/><use transform="matrix(0.010850694444444444,0,0,0.010850694444444444,7.269965277777778,0)" xlink:href="#Q"/><use transform="matrix(0.010850694444444444,0,0,0.010850694444444444,12.651909722222221,0)" xlink:href="#G"/><use transform="matrix(0.010850694444444444,0,0,0.010850694444444444,25.34722222222222,0)" xlink:href="#P"/><use transform="matrix(0.010850694444444444,0,0,0.010850694444444444,37.044270833333336,0)" xlink:href="#M"/><use transform="matrix(0.010850694444444444,0,0,0.010850694444444444,50,0)" xlink:href="#J"/><use transform="matrix(0.010850694444444444,0,0,0.010850694444444444,57.0529513888889,0)" xlink:href="#I"/></g><path d="M678-1118v154H420V0H240v-964H20v-154h220v-149c0-194 155-293 318-293 85 0 141 18 168 30l-50 154c-19-6-47-17-97-17-111 0-159 58-159 166v109h258" id="Y"/><g id="k"><use transform="matrix(0.010850694444444444,0,0,0.010850694444444444,0,0)" xlink:href="#Y"/><use transform="matrix(0.010850694444444444,0,0,0.010850694444444444,8.22482638888889,0)" xlink:href="#P"/></g><path d="M934 0v166H0V0h934" id="Z"/><g id="l"><use transform="matrix(0.010850694444444444,0,0,0.010850694444444444,0,0)" xlink:href="#G"/><use transform="matrix(0.010850694444444444,0,0,0.010850694444444444,12.6953125,0)" xlink:href="#H"/><use transform="matrix(0.010850694444444444,0,0,0.010850694444444444,25.83550347222222,0)" xlink:href="#I"/><use transform="matrix(0.010850694444444444,0,0,0.010850694444444444,37.565104166666664,0)" xlink:href="#J"/><use transform="matrix(0.010850694444444444,0,0,0.010850694444444444,44.61805555555556,0)" xlink:href="#K"/><use transform="matrix(0.010850694444444444,0,0,0.010850694444444444,57.94270833333333,0)" xlink:href="#L"/><use transform="matrix(0.010850694444444444,0,0,0.010850694444444444,77.40885416666667,0)" xlink:href="#M"/><use transform="matrix(0.010850694444444444,0,0,0.010850694444444444,90.36458333333334,0)" xlink:href="#N"/><use transform="matrix(0.010850694444444444,0,0,0.010850694444444444,98.73046875000001,0)" xlink:href="#Z"/><use transform="matrix(0.010850694444444444,0,0,0.010850694444444444,109.6137152777778,0)" xlink:href="#Q"/><use transform="matrix(0.010850694444444444,0,0,0.010850694444444444,114.99565972222224,0)" xlink:href="#R"/></g><g id="m"><use transform="matrix(0.010850694444444444,0,0,0.010850694444444444,0,0)" xlink:href="#U"/><use transform="matrix(0.010850694444444444,0,0,0.010850694444444444,12.489149305555555,0)" xlink:href="#Q"/><use transform="matrix(0.010850694444444444,0,0,0.010850694444444444,17.87109375,0)" xlink:href="#S"/></g><g id="n"><use transform="matrix(0.010850694444444444,0,0,0.010850694444444444,0,0)" xlink:href="#J"/><use transform="matrix(0.010850694444444444,0,0,0.010850694444444444,7.269965277777778,0)" xlink:href="#Q"/><use transform="matrix(0.010850694444444444,0,0,0.010850694444444444,12.651909722222221,0)" xlink:href="#G"/><use transform="matrix(0.010850694444444444,0,0,0.010850694444444444,25.34722222222222,0)" xlink:href="#P"/><use transform="matrix(0.010850694444444444,0,0,0.010850694444444444,37.044270833333336,0)" xlink:href="#M"/><use transform="matrix(0.010850694444444444,0,0,0.010850694444444444,50,0)" xlink:href="#J"/><use transform="matrix(0.010850694444444444,0,0,0.010850694444444444,57.26996527777778,0)" xlink:href="#Z"/><use transform="matrix(0.010850694444444444,0,0,0.010850694444444444,67.40451388888889,0)" xlink:href="#R"/><use transform="matrix(0.010850694444444444,0,0,0.010850694444444444,81.01128472222221,0)" xlink:href="#T"/><use transform="matrix(0.010850694444444444,0,0,0.010850694444444444,93.48958333333333,0)" xlink:href="#J"/><use transform="matrix(0.010850694444444444,0,0,0.010850694444444444,100.54253472222221,0)" xlink:href="#M"/></g><g id="o"><use transform="matrix(0.010850694444444444,0,0,0.010850694444444444,0,0)" xlink:href="#R"/><use transform="matrix(0.010850694444444444,0,0,0.010850694444444444,13.606770833333332,0)" xlink:href="#T"/><use transform="matrix(0.010850694444444444,0,0,0.010850694444444444,26.085069444444443,0)" xlink:href="#J"/><use transform="matrix(0.010850694444444444,0,0,0.010850694444444444,33.13802083333333,0)" xlink:href="#M"/></g><g id="p"><use transform="matrix(0.010850694444444444,0,0,0.010850694444444444,0,0)" xlink:href="#L"/><use transform="matrix(0.010850694444444444,0,0,0.010850694444444444,19.466145833333332,0)" xlink:href="#M"/><use transform="matrix(0.010850694444444444,0,0,0.010850694444444444,32.421875,0)" xlink:href="#G"/><use transform="matrix(0.010850694444444444,0,0,0.010850694444444444,45.1171875,0)" xlink:href="#V"/><use transform="matrix(0.010850694444444444,0,0,0.010850694444444444,58.25737847222222,0)" xlink:href="#T"/><use transform="matrix(0.010850694444444444,0,0,0.010850694444444444,70.73567708333333,0)" xlink:href="#S"/><use transform="matrix(0.010850694444444444,0,0,0.010850694444444444,83.8650173611111,0)" xlink:href="#Q"/><use transform="matrix(0.010850694444444444,0,0,0.010850694444444444,89.24696180555556,0)" xlink:href="#G"/><use transform="matrix(0.010850694444444444,0,0,0.010850694444444444,101.94227430555556,0)" xlink:href="#I"/></g><path d="M140 405l46-156c120 36 205 19 263-150l32-93L54-1118h197c107 313 237 620 324 950 87-331 219-637 326-950h196L606 167c-68 178-176 259-334 259-64 0-113-12-132-21" id="aa"/><g id="q"><use transform="matrix(0.010850694444444444,0,0,0.010850694444444444,0,0)" xlink:href="#I"/><use transform="matrix(0.010850694444444444,0,0,0.010850694444444444,11.729600694444445,0)" xlink:href="#T"/><use transform="matrix(0.010850694444444444,0,0,0.010850694444444444,24.207899305555554,0)" xlink:href="#X"/><use transform="matrix(0.010850694444444444,0,0,0.010850694444444444,29.58984375,0)" xlink:href="#T"/><use transform="matrix(0.010850694444444444,0,0,0.010850694444444444,42.068142361111114,0)" xlink:href="#N"/><use transform="matrix(0.010850694444444444,0,0,0.010850694444444444,50.78125,0)" xlink:href="#aa"/></g><g id="r"><use transform="matrix(0.010850694444444444,0,0,0.010850694444444444,0,0)" xlink:href="#Y"/><use transform="matrix(0.010850694444444444,0,0,0.010850694444444444,8.22482638888889,0)" xlink:href="#X"/><use transform="matrix(0.010850694444444444,0,0,0.010850694444444444,13.606770833333332,0)" xlink:href="#K"/><use transform="matrix(0.010850694444444444,0,0,0.010850694444444444,27.1484375,0)" xlink:href="#T"/><use transform="matrix(0.010850694444444444,0,0,0.010850694444444444,39.626736111111114,0)" xlink:href="#J"/></g><path d="M180 0v-1490h190c0 262 1 526-3 784 217-279 467-523 702-784h249L716-845 1319 0h-225L585-716 370-489V0H180" id="ab"/><g id="s"><use transform="matrix(0.010850694444444444,0,0,0.010850694444444444,0,0)" xlink:href="#ab"/><use transform="matrix(0.010850694444444444,0,0,0.010850694444444444,14.051649305555555,0)" xlink:href="#M"/><use transform="matrix(0.010850694444444444,0,0,0.010850694444444444,26.573350694444443,0)" xlink:href="#aa"/></g><path d="M409 0L70-1118h191c89 329 165 560 243 925 75-353 154-601 240-925h192c85 325 161 564 235 922 77-354 157-598 244-922h191L1267 0h-179c-86-307-176-590-250-913C763-588 675-308 588 0H409" id="ac"/><g id="t"><use transform="matrix(0.010850694444444444,0,0,0.010850694444444444,0,0)" xlink:href="#O"/><use transform="matrix(0.010850694444444444,0,0,0.010850694444444444,13.823784722222221,0)" xlink:href="#T"/><use transform="matrix(0.010850694444444444,0,0,0.010850694444444444,26.302083333333332,0)" xlink:href="#I"/><use transform="matrix(0.010850694444444444,0,0,0.010850694444444444,38.03168402777778,0)" xlink:href="#I"/><use transform="matrix(0.010850694444444444,0,0,0.010850694444444444,49.76128472222222,0)" xlink:href="#ac"/><use transform="matrix(0.010850694444444444,0,0,0.010850694444444444,67.54557291666667,0)" xlink:href="#K"/><use transform="matrix(0.010850694444444444,0,0,0.010850694444444444,80.87022569444444,0)" xlink:href="#N"/><use transform="matrix(0.010850694444444444,0,0,0.010850694444444444,88.8671875,0)" xlink:href="#R"/></g><path fill="#333" d="M128 0v-1118h278l12 217c60-163 185-234 319-234 143 0 236 81 288 251 63-172 205-251 359-251 205 0 357 138 357 381V0h-301v-697c0-126-76-187-177-187-114 0-184 79-184 196V0H789v-705c0-109-72-179-174-179-106 0-187 74-187 208V0H128" id="ad"/><path fill="#333" d="M440 22C227 22 68-92 68-313c0-250 202-322 422-343 195-21 271-24 271-105 0-95-63-149-175-149-116 0-187 57-211 129l-275-46c57-194 237-305 487-305 240 0 474 108 474 379V0H777v-155h-10C713-51 605 22 440 22zm85-211c140 0 238-93 238-211v-121c-37 26-156 42-222 51-111 16-185 59-185 149 0 87 70 132 169 132" id="ae"/><path fill="#333" d="M428-647V0H128v-1118h283l4 231c63-156 176-245 348-245 232 0 384 159 384 421V0H847v-659c0-139-76-222-202-222-128 0-217 86-217 234" id="af"/><path fill="#333" d="M120 396l69-226c123 42 245 23 254-107l8-60L31-1118h319c87 288 199 559 259 872 72-308 185-583 277-872h315L726 132c-68 181-186 294-410 294-79 0-153-13-196-30" id="ag"/><path fill="#333" d="M818-733v240H140v-240h678" id="ah"/><path fill="#333" d="M683-1118v229H474v562c0 71 29 104 102 104 23 0 73-7 95-13l43 225C647 9 580 16 520 16 296 16 174-96 174-301v-588H20v-229h154v-266h300v266h209" id="ai"/><path fill="#333" d="M628 22C291 22 81-210 81-554c0-346 210-578 547-578 336 0 547 232 547 578 0 344-211 576-547 576zm0-236c160 0 242-146 242-341 0-197-82-341-242-341S387-753 387-555c0 195 81 341 241 341" id="aj"/><g id="u"><use transform="matrix(0.008680555555555556,0,0,0.008680555555555556,0,0)" xlink:href="#ad"/><use transform="matrix(0.008680555555555556,0,0,0.008680555555555556,16.223958333333336,0)" xlink:href="#ae"/><use transform="matrix(0.008680555555555556,0,0,0.008680555555555556,26.545138888888893,0)" xlink:href="#af"/><use transform="matrix(0.008680555555555556,0,0,0.008680555555555556,37.309027777777786,0)" xlink:href="#ag"/><use transform="matrix(0.008680555555555556,0,0,0.008680555555555556,47.309027777777786,0)" xlink:href="#ah"/><use transform="matrix(0.008680555555555556,0,0,0.008680555555555556,55.62500000000001,0)" xlink:href="#ai"/><use transform="matrix(0.008680555555555556,0,0,0.008680555555555556,61.96180555555556,0)" xlink:href="#aj"/><use transform="matrix(0.008680555555555556,0,0,0.008680555555555556,72.86458333333334,0)" xlink:href="#ah"/><use transform="matrix(0.008680555555555556,0,0,0.008680555555555556,81.18055555555557,0)" xlink:href="#ad"/><use transform="matrix(0.008680555555555556,0,0,0.008680555555555556,97.40451388888891,0)" xlink:href="#ae"/><use transform="matrix(0.008680555555555556,0,0,0.008680555555555556,107.72569444444447,0)" xlink:href="#af"/><use transform="matrix(0.008680555555555556,0,0,0.008680555555555556,118.48958333333336,0)" xlink:href="#ag"/></g><path fill="#333" d="M127-1118h301V57c1 278-186 374-478 361V182c116 8 177-28 177-129v-1171zm151-146c-90 0-165-68-165-154 0-85 75-154 165-154s165 69 165 154c0 86-75 154-165 154" id="ak"/><path fill="#333" d="M513 14c-232 0-385-159-385-421v-711h300v659c0 139 76 222 202 222 127 0 217-86 217-234v-647h301V0H864l-4-232C797-74 683 14 513 14" id="al"/><path fill="#333" d="M628 22C291 22 81-210 81-554c0-346 210-578 547-578 265 0 455 142 497 372l-279 52c-25-116-99-188-215-188-160 0-244 139-244 341 0 200 84 341 244 341 116 0 193-74 217-195l279 51C1085-123 896 22 628 22" id="am"/><path fill="#333" d="M128 0v-1118h300V0H128zm150-1264c-91 0-165-68-165-154 0-85 74-154 165-154 90 0 165 69 165 154 0 86-75 154-165 154" id="an"/><g id="v"><use transform="matrix(0.008680555555555556,0,0,0.008680555555555556,0,0)" xlink:href="#ak"/><use transform="matrix(0.008680555555555556,0,0,0.008680555555555556,4.817708333333334,0)" xlink:href="#al"/><use transform="matrix(0.008680555555555556,0,0,0.008680555555555556,15.885416666666668,0)" xlink:href="#af"/><use transform="matrix(0.008680555555555556,0,0,0.008680555555555556,26.953125,0)" xlink:href="#am"/><use transform="matrix(0.008680555555555556,0,0,0.008680555555555556,37.41319444444444,0)" xlink:href="#ai"/><use transform="matrix(0.008680555555555556,0,0,0.008680555555555556,43.92361111111111,0)" xlink:href="#an"/><use transform="matrix(0.008680555555555556,0,0,0.008680555555555556,48.74131944444445,0)" xlink:href="#aj"/><use transform="matrix(0.008680555555555556,0,0,0.008680555555555556,59.64409722222222,0)" xlink:href="#af"/></g><g id="w"><use transform="matrix(0.010850694444444444,0,0,0.010850694444444444,0,0)" xlink:href="#J"/><use transform="matrix(0.010850694444444444,0,0,0.010850694444444444,7.269965277777778,0)" xlink:href="#Q"/><use transform="matrix(0.010850694444444444,0,0,0.010850694444444444,12.651909722222221,0)" xlink:href="#G"/><use transform="matrix(0.010850694444444444,0,0,0.010850694444444444,25.34722222222222,0)" xlink:href="#P"/><use transform="matrix(0.010850694444444444,0,0,0.010850694444444444,37.044270833333336,0)" xlink:href="#M"/><use transform="matrix(0.010850694444444444,0,0,0.010850694444444444,50,0)" xlink:href="#J"/><use transform="matrix(0.010850694444444444,0,0,0.010850694444444444,57.26996527777778,0)" xlink:href="#Z"/><use transform="matrix(0.010850694444444444,0,0,0.010850694444444444,68.15321180555556,0)" xlink:href="#L"/><use transform="matrix(0.010850694444444444,0,0,0.010850694444444444,87.61935763888889,0)" xlink:href="#M"/><use transform="matrix(0.010850694444444444,0,0,0.010850694444444444,100.57508680555556,0)" xlink:href="#G"/><use transform="matrix(0.010850694444444444,0,0,0.010850694444444444,113.27039930555556,0)" xlink:href="#V"/><use transform="matrix(0.010850694444444444,0,0,0.010850694444444444,126.41059027777777,0)" xlink:href="#T"/><use transform="matrix(0.010850694444444444,0,0,0.010850694444444444,138.88888888888889,0)" xlink:href="#S"/><use transform="matrix(0.010850694444444444,0,0,0.010850694444444444,152.01822916666666,0)" xlink:href="#Q"/><use transform="matrix(0.010850694444444444,0,0,0.010850694444444444,157.40017361111111,0)" xlink:href="#G"/></g><g id="x"><use transform="matrix(0.010850694444444444,0,0,0.010850694444444444,0,0)" xlink:href="#J"/><use transform="matrix(0.010850694444444444,0,0,0.010850694444444444,7.269965277777778,0)" xlink:href="#Q"/><use transform="matrix(0.010850694444444444,0,0,0.010850694444444444,12.651909722222221,0)" xlink:href="#G"/><use transform="matrix(0.010850694444444444,0,0,0.010850694444444444,25.34722222222222,0)" xlink:href="#P"/><use transform="matrix(0.010850694444444444,0,0,0.010850694444444444,37.044270833333336,0)" xlink:href="#M"/><use transform="matrix(0.010850694444444444,0,0,0.010850694444444444,50,0)" xlink:href="#J"/><use transform="matrix(0.010850694444444444,0,0,0.010850694444444444,57.26996527777778,0)" xlink:href="#Z"/><use transform="matrix(0.010850694444444444,0,0,0.010850694444444444,68.15321180555556,0)" xlink:href="#Q"/><use transform="matrix(0.010850694444444444,0,0,0.010850694444444444,73.53515625,0)" xlink:href="#R"/></g><g id="y"><use transform="matrix(0.010850694444444444,0,0,0.010850694444444444,0,0)" xlink:href="#L"/><use transform="matrix(0.010850694444444444,0,0,0.010850694444444444,19.466145833333332,0)" xlink:href="#M"/><use transform="matrix(0.010850694444444444,0,0,0.010850694444444444,32.421875,0)" xlink:href="#G"/><use transform="matrix(0.010850694444444444,0,0,0.010850694444444444,45.1171875,0)" xlink:href="#V"/><use transform="matrix(0.010850694444444444,0,0,0.010850694444444444,58.25737847222222,0)" xlink:href="#T"/><use transform="matrix(0.010850694444444444,0,0,0.010850694444444444,70.73567708333333,0)" xlink:href="#S"/><use transform="matrix(0.010850694444444444,0,0,0.010850694444444444,83.8650173611111,0)" xlink:href="#Q"/><use transform="matrix(0.010850694444444444,0,0,0.010850694444444444,89.24696180555556,0)" xlink:href="#G"/><use transform="matrix(0.010850694444444444,0,0,0.010850694444444444,101.94227430555556,0)" xlink:href="#Z"/><use transform="matrix(0.010850694444444444,0,0,0.010850694444444444,112.82552083333333,0)" xlink:href="#Q"/><use transform="matrix(0.010850694444444444,0,0,0.010850694444444444,118.20746527777777,0)" xlink:href="#R"/></g><path fill="#333" d="M633 22C291 22 81-200 81-553c0-345 210-579 537-579 292 0 525 185 525 567v84H378c7 183 109 277 260 277 105 0 184-46 216-132l272 51C1071-99 893 22 633 22zM380-669h474c-15-146-94-237-233-237-143 0-229 99-241 237" id="ao"/><g id="z"><use transform="matrix(0.008680555555555556,0,0,0.008680555555555556,0,0)" xlink:href="#aj"/><use transform="matrix(0.008680555555555556,0,0,0.008680555555555556,10.902777777777779,0)" xlink:href="#af"/><use transform="matrix(0.008680555555555556,0,0,0.008680555555555556,21.970486111111114,0)" xlink:href="#ao"/><use transform="matrix(0.008680555555555556,0,0,0.008680555555555556,32.56076388888889,0)" xlink:href="#ah"/><use transform="matrix(0.008680555555555556,0,0,0.008680555555555556,40.876736111111114,0)" xlink:href="#ai"/><use transform="matrix(0.008680555555555556,0,0,0.008680555555555556,47.213541666666664,0)" xlink:href="#aj"/><use transform="matrix(0.008680555555555556,0,0,0.008680555555555556,58.116319444444436,0)" xlink:href="#ah"/><use transform="matrix(0.008680555555555556,0,0,0.008680555555555556,66.43229166666667,0)" xlink:href="#ad"/><use transform="matrix(0.008680555555555556,0,0,0.008680555555555556,82.65625,0)" xlink:href="#ae"/><use transform="matrix(0.008680555555555556,0,0,0.008680555555555556,92.97743055555556,0)" xlink:href="#af"/><use transform="matrix(0.008680555555555556,0,0,0.008680555555555556,103.74131944444444,0)" xlink:href="#ag"/></g><g id="A"><use transform="matrix(0.010850694444444444,0,0,0.010850694444444444,0,0)" xlink:href="#Q"/><use transform="matrix(0.010850694444444444,0,0,0.010850694444444444,5.381944444444445,0)" xlink:href="#S"/><use transform="matrix(0.010850694444444444,0,0,0.010850694444444444,18.18576388888889,0)" xlink:href="#U"/><use transform="matrix(0.010850694444444444,0,0,0.010850694444444444,30.240885416666664,0)" xlink:href="#M"/><use transform="matrix(0.010850694444444444,0,0,0.010850694444444444,43.19661458333333,0)" xlink:href="#S"/><use transform="matrix(0.010850694444444444,0,0,0.010850694444444444,56.32595486111111,0)" xlink:href="#J"/><use transform="matrix(0.010850694444444444,0,0,0.010850694444444444,63.37890625,0)" xlink:href="#K"/><use transform="matrix(0.010850694444444444,0,0,0.010850694444444444,76.70355902777777,0)" xlink:href="#N"/><use transform="matrix(0.010850694444444444,0,0,0.010850694444444444,85.41666666666667,0)" xlink:href="#aa"/></g><g id="B"><use transform="matrix(0.010850694444444444,0,0,0.010850694444444444,0,0)" xlink:href="#O"/><use transform="matrix(0.010850694444444444,0,0,0.010850694444444444,13.606770833333332,0)" xlink:href="#N"/><use transform="matrix(0.010850694444444444,0,0,0.010850694444444444,22.31987847222222,0)" xlink:href="#Q"/><use transform="matrix(0.010850694444444444,0,0,0.010850694444444444,27.701822916666664,0)" xlink:href="#G"/><use transform="matrix(0.010850694444444444,0,0,0.010850694444444444,40.397135416666664,0)" xlink:href="#M"/></g><g id="C"><use transform="matrix(0.010850694444444444,0,0,0.010850694444444444,0,0)" xlink:href="#J"/><use transform="matrix(0.010850694444444444,0,0,0.010850694444444444,7.269965277777778,0)" xlink:href="#Q"/><use transform="matrix(0.010850694444444444,0,0,0.010850694444444444,12.651909722222221,0)" xlink:href="#G"/><use transform="matrix(0.010850694444444444,0,0,0.010850694444444444,25.34722222222222,0)" xlink:href="#P"/><use transform="matrix(0.010850694444444444,0,0,0.010850694444444444,37.044270833333336,0)" xlink:href="#M"/><use transform="matrix(0.010850694444444444,0,0,0.010850694444444444,50,0)" xlink:href="#J"/><use transform="matrix(0.010850694444444444,0,0,0.010850694444444444,57.26996527777778,0)" xlink:href="#Z"/><use transform="matrix(0.010850694444444444,0,0,0.010850694444444444,68.15321180555556,0)" xlink:href="#Q"/><use transform="matrix(0.010850694444444444,0,0,0.010850694444444444,73.53515625,0)" xlink:href="#S"/><use transform="matrix(0.010850694444444444,0,0,0.010850694444444444,86.33897569444444,0)" xlink:href="#U"/><use transform="matrix(0.010850694444444444,0,0,0.010850694444444444,98.39409722222221,0)" xlink:href="#M"/><use transform="matrix(0.010850694444444444,0,0,0.010850694444444444,111.3498263888889,0)" xlink:href="#S"/><use transform="matrix(0.010850694444444444,0,0,0.010850694444444444,124.47916666666666,0)" xlink:href="#J"/><use transform="matrix(0.010850694444444444,0,0,0.010850694444444444,131.53211805555557,0)" xlink:href="#K"/><use transform="matrix(0.010850694444444444,0,0,0.010850694444444444,144.85677083333334,0)" xlink:href="#N"/><use transform="matrix(0.010850694444444444,0,0,0.010850694444444444,153.56987847222223,0)" xlink:href="#aa"/></g><g id="D"><use transform="matrix(0.010850694444444444,0,0,0.010850694444444444,0,0)" xlink:href="#Q"/><use transform="matrix(0.010850694444444444,0,0,0.010850694444444444,5.381944444444445,0)" xlink:href="#S"/><use transform="matrix(0.010850694444444444,0,0,0.010850694444444444,18.18576388888889,0)" xlink:href="#U"/><use transform="matrix(0.010850694444444444,0,0,0.010850694444444444,30.240885416666664,0)" xlink:href="#M"/><use transform="matrix(0.010850694444444444,0,0,0.010850694444444444,43.19661458333333,0)" xlink:href="#S"/><use transform="matrix(0.010850694444444444,0,0,0.010850694444444444,56.32595486111111,0)" xlink:href="#J"/><use transform="matrix(0.010850694444444444,0,0,0.010850694444444444,63.37890625,0)" xlink:href="#K"/><use transform="matrix(0.010850694444444444,0,0,0.010850694444444444,76.70355902777777,0)" xlink:href="#N"/><use transform="matrix(0.010850694444444444,0,0,0.010850694444444444,85.41666666666667,0)" xlink:href="#aa"/><use transform="matrix(0.010850694444444444,0,0,0.010850694444444444,96.14800347222221,0)" xlink:href="#Z"/><use transform="matrix(0.010850694444444444,0,0,0.010850694444444444,107.03125000000001,0)" xlink:href="#Q"/><use transform="matrix(0.010850694444444444,0,0,0.010850694444444444,112.41319444444446,0)" xlink:href="#R"/></g><path d="M128 0v-1118h278l12 217c60-163 185-234 319-234 143 0 236 81 288 251 63-172 205-251 359-251 205 0 357 138 357 381V0h-301v-697c0-126-76-187-177-187-114 0-184 79-184 196V0H789v-705c0-109-72-179-174-179-106 0-187 74-187 208V0H128" id="ap"/><path d="M440 22C227 22 68-92 68-313c0-250 202-322 422-343 195-21 271-24 271-105 0-95-63-149-175-149-116 0-187 57-211 129l-275-46c57-194 237-305 487-305 240 0 474 108 474 379V0H777v-155h-10C713-51 605 22 440 22zm85-211c140 0 238-93 238-211v-121c-37 26-156 42-222 51-111 16-185 59-185 149 0 87 70 132 169 132" id="aq"/><path d="M428-647V0H128v-1118h283l4 231c63-156 176-245 348-245 232 0 384 159 384 421V0H847v-659c0-139-76-222-202-222-128 0-217 86-217 234" id="ar"/><path d="M120 396l69-226c123 42 245 23 254-107l8-60L31-1118h319c87 288 199 559 259 872 72-308 185-583 277-872h315L726 132c-68 181-186 294-410 294-79 0-153-13-196-30" id="as"/><path d="M818-733v240H140v-240h678" id="at"/><path d="M683-1118v229H474v562c0 71 29 104 102 104 23 0 73-7 95-13l43 225C647 9 580 16 520 16 296 16 174-96 174-301v-588H20v-229h154v-266h300v266h209" id="au"/><path d="M628 22C291 22 81-210 81-554c0-346 210-578 547-578 336 0 547 232 547 578 0 344-211 576-547 576zm0-236c160 0 242-146 242-341 0-197-82-341-242-341S387-753 387-555c0 195 81 341 241 341" id="av"/><g id="E"><use transform="matrix(0.008680555555555556,0,0,0.008680555555555556,0,0)" xlink:href="#ap"/><use transform="matrix(0.008680555555555556,0,0,0.008680555555555556,16.223958333333336,0)" xlink:href="#aq"/><use transform="matrix(0.008680555555555556,0,0,0.008680555555555556,26.545138888888893,0)" xlink:href="#ar"/><use transform="matrix(0.008680555555555556,0,0,0.008680555555555556,37.309027777777786,0)" xlink:href="#as"/><use transform="matrix(0.008680555555555556,0,0,0.008680555555555556,47.309027777777786,0)" xlink:href="#at"/><use transform="matrix(0.008680555555555556,0,0,0.008680555555555556,55.62500000000001,0)" xlink:href="#au"/><use transform="matrix(0.008680555555555556,0,0,0.008680555555555556,61.96180555555556,0)" xlink:href="#av"/><use transform="matrix(0.008680555555555556,0,0,0.008680555555555556,72.86458333333334,0)" xlink:href="#at"/><use transform="matrix(0.008680555555555556,0,0,0.008680555555555556,81.18055555555557,0)" xlink:href="#ap"/><use transform="matrix(0.008680555555555556,0,0,0.008680555555555556,97.40451388888891,0)" xlink:href="#aq"/><use transform="matrix(0.008680555555555556,0,0,0.008680555555555556,107.72569444444447,0)" xlink:href="#ar"/><use transform="matrix(0.008680555555555556,0,0,0.008680555555555556,118.48958333333336,0)" xlink:href="#as"/></g><path d="M127-1118h301V57c1 278-186 374-478 361V182c116 8 177-28 177-129v-1171zm151-146c-90 0-165-68-165-154 0-85 75-154 165-154s165 69 165 154c0 86-75 154-165 154" id="aw"/><path d="M513 14c-232 0-385-159-385-421v-711h300v659c0 139 76 222 202 222 127 0 217-86 217-234v-647h301V0H864l-4-232C797-74 683 14 513 14" id="ax"/><path d="M628 22C291 22 81-210 81-554c0-346 210-578 547-578 265 0 455 142 497 372l-279 52c-25-116-99-188-215-188-160 0-244 139-244 341 0 200 84 341 244 341 116 0 193-74 217-195l279 51C1085-123 896 22 628 22" id="ay"/><path d="M128 0v-1118h300V0H128zm150-1264c-91 0-165-68-165-154 0-85 74-154 165-154 90 0 165 69 165 154 0 86-75 154-165 154" id="az"/><g id="F"><use transform="matrix(0.008680555555555556,0,0,0.008680555555555556,0,0)" xlink:href="#aw"/><use transform="matrix(0.008680555555555556,0,0,0.008680555555555556,4.817708333333334,0)" xlink:href="#ax"/><use transform="matrix(0.008680555555555556,0,0,0.008680555555555556,15.885416666666668,0)" xlink:href="#ar"/><use transform="matrix(0.008680555555555556,0,0,0.008680555555555556,26.953125,0)" xlink:href="#ay"/><use transform="matrix(0.008680555555555556,0,0,0.008680555555555556,37.41319444444444,0)" xlink:href="#au"/><use transform="matrix(0.008680555555555556,0,0,0.008680555555555556,43.92361111111111,0)" xlink:href="#az"/><use transform="matrix(0.008680555555555556,0,0,0.008680555555555556,48.74131944444445,0)" xlink:href="#av"/><use transform="matrix(0.008680555555555556,0,0,0.008680555555555556,59.64409722222222,0)" xlink:href="#ar"/></g></defs></g></svg>